<svg xmlns="http://www.w3.org/2000/svg" xmlns:xlink="http://www.w3.org/1999/xlink" version="1.1" x="0px" y="0px" viewBox="0 0 100 125" enable-background="new 0 0 100 100" xml:space="preserve"><g><path d="M6.859,24.549c3.548,3.208,7.767,5.271,12.896,6.308c4.998,1.01,10.589,1.954,17.74,2.178   c-9.758-2.145-19.798-5.313-23.449-8.692c-0.044,0.015-0.086,0.032-0.131,0.047c-0.232-0.172-0.467-0.334-0.693-0.524   c-1.448-1.218-3.103-2.756-4.943-3.539c-2.926-1.615-7.307-2.183-7.779,2.156c-0.049,0.451,0.158,0.741,0.456,0.885   c0.609-0.258,1.285-0.403,1.989-0.403C4.359,22.965,5.713,23.513,6.859,24.549z" fill='#7dd3fc' /><path d="M46.243,32.949c-2.25-1.057-4.703-2.333-5.943-2.665c0.017-0.102-8.819-3.94-12.801-2.786   c-0.165,0.048-0.303,0.142-0.423,0.255c-7.314-4.717-8.357-5.04-11.08-4.603c-0.114,0.007-0.296,0.097-0.5,0.224   c4.204,3.571,18.062,7.548,30.637,9.582C46.168,32.953,46.206,32.951,46.243,32.949z" fill='#7dd3fc' /><path d="M99.754,59.034C89.53,36.135,93.369,32.916,73.172,27.866c-2.68-0.67-20.687-6.611-23.743-7.24   c-0.832-0.171-1.633-0.249-2.39-0.249c-5.375,0-8.436,3.912-3.467,5.821c5.207,2.001,5.659,2.959,9.13,3.851   c1.525,0.392,7.67,1.378,10.471,2.892c-8.992,1.328-16.24,1.857-22.448,1.857c-8.45,0-14.968-0.981-21.31-2.262   c-5.057-1.022-9.64-3.041-13.705-6.716c-0.893-0.807-1.873-1.142-2.767-1.142c-2.437,0-4.221,2.494-1.778,4.703   c0.593,0.536,2.123,2.029,2.358,2.28c12.631,13.481,29.178,15.288,51.992,18.455c0.568,0.079,4.821,0.384,6.337,0.384   c0.239,0,0.41-0.008,0.488-0.025c10.303,3.177,15.624,10.955,22.269,24.244c0.08,0.16,0.252,0.235,0.499,0.235   C88.083,74.954,102.01,64.088,99.754,59.034z" fill='#38bdf8' /></g></svg>